<svg width="512" height="512" viewBox="0 0 512 512" fill="none" xmlns="http://www.w3.org/2000/svg">
<path d="M357.823 391.765L120.236 154.177C110.619 144.56 110.619 129.852 120.236 120.236C129.852 110.619 144.56 110.619 154.177 120.236L391.765 357.823C401.381 367.44 401.381 382.148 391.765 391.765C382.148 401.381 367.44 401.381 357.823 391.765Z" fill="white"/>
<path d="M391.765 154.177L154.177 391.765C144.56 401.381 129.852 401.381 120.236 391.765C110.619 382.148 110.619 367.44 120.236 357.823L357.823 120.236C367.44 110.619 382.148 110.619 391.765 120.236C401.381 129.852 401.381 144.56 391.765 154.177Z" fill="white"/>
</svg>
