<svg width="42" height="42" viewBox="0 0 42 42" fill="none" xmlns="http://www.w3.org/2000/svg">
<circle cx="21" cy="21" r="21" fill="#4F4F4F"/>
<path d="M15.0141 36.136C14.5196 35.9032 14.3075 35.313 14.5402 34.8182C14.5402 34.8177 14.5975 34.6964 14.7036 34.4604C14.8091 34.224 14.9618 33.8778 15.1447 33.4445C15.5105 32.5769 15.9997 31.3587 16.4875 29.9664C17.466 27.1879 18.4241 23.6856 18.4174 21.0153C18.4174 20.7301 18.4072 20.4553 18.3856 20.1928C18.213 17.9597 16.9317 15.1558 15.5079 12.7823C14.0898 10.4021 12.5544 8.42588 11.9525 7.67883C11.7802 7.46497 11.6891 7.3573 11.6886 7.35679C11.3356 6.93939 11.3878 6.31435 11.8054 5.9615C12.2229 5.60818 12.8469 5.6605 13.2 6.07837C13.2178 6.10002 14.8548 8.03721 16.5654 10.7256C18.2699 13.4247 20.0793 16.8342 20.3576 20.0307C20.3837 20.3532 20.396 20.682 20.396 21.0153C20.3894 24.1224 19.3616 27.7323 18.3549 30.6218C17.3447 33.5045 16.34 35.6414 16.3308 35.6617C16.1621 36.0204 15.8064 36.2305 15.435 36.2305C15.2938 36.2305 15.1503 36.2 15.0141 36.136Z" fill="white"/>
<path d="M26.2382 35.6615C26.2296 35.6412 25.2243 33.5048 24.2141 30.6216C23.2068 27.7321 22.179 24.1222 22.1723 21.0156C22.1723 20.6808 22.1851 20.3521 22.2114 20.0306C22.4899 16.834 24.2996 13.4252 26.0039 10.726C27.715 8.03754 29.3515 6.10034 29.3694 6.07822L29.3699 6.0787C29.7225 5.66083 30.3465 5.60859 30.7641 5.96131C31.181 6.31464 31.2337 6.9392 30.8808 7.35711C30.8808 7.35759 30.789 7.4653 30.617 7.67912C30.4448 7.89237 30.1963 8.20625 29.8967 8.60105C29.2972 9.39074 28.4904 10.5049 27.6732 11.7894C26.0322 14.3496 24.3778 17.6375 24.1836 20.1931C24.1621 20.4566 24.151 20.7315 24.151 21.0156C24.1465 23.3496 24.8764 26.3282 25.7177 28.8926C26.5563 31.4615 27.4947 33.6336 27.8658 34.4602C27.9713 34.6966 28.0286 34.818 28.0293 34.8185C28.2619 35.3133 28.0496 35.903 27.5549 36.1363C27.4187 36.2003 27.2757 36.2308 27.1347 36.2308C26.7631 36.2308 26.4068 36.0202 26.2382 35.6615Z" fill="white"/>
<path d="M20.4255 14.5218L17.7666 9.86457C17.5368 9.46181 17.6158 8.95641 17.9572 8.64335L20.6161 6.20378C20.9947 5.85602 21.5745 5.85602 21.953 6.20378L24.6119 8.64335C24.9532 8.95594 25.0322 9.46181 24.8025 9.86457L22.1435 14.5218C21.9682 14.8287 21.638 15.0204 21.2846 15.0204C20.9315 15.0204 20.6009 14.8287 20.4255 14.5218ZM19.8769 9.56879L21.2844 12.0345L22.6923 9.56831L21.2846 8.27672L19.8769 9.56879Z" fill="white"/>
</svg>
